<svg width="24" height="24" viewBox="0 0 24 24" fill="none" xmlns="http://www.w3.org/2000/svg">
<path fill-rule="evenodd" clip-rule="evenodd" d="M8.54797 20.8742C8.5451 20.8746 8.54227 20.8751 8.53948 20.8755C8.52987 20.877 8.52069 20.8785 8.51191 20.8799C8.52324 20.8781 8.53525 20.8762 8.54797 20.8742Z" fill="black"/>
<path fill-rule="evenodd" clip-rule="evenodd" d="M16.0714 0.450061C14.4657 0.115658 12.7368 -0.0763325 11.087 0.0288403C10.5077 0.0657753 9.93049 0.226097 9.37762 0.419848C9.06405 0.529739 8.74001 0.657591 8.42756 0.780863C8.20326 0.869361 7.98493 0.955501 7.78074 1.03095C5.37017 1.92163 3.46333 3.87493 2.10007 6.0583C1.84432 6.4167 1.61245 6.80327 1.43173 7.23003C0.173197 9.68271 -0.339892 12.5222 0.233888 15.2741C0.25587 15.9395 0.35732 16.6348 0.62313 17.289C0.70394 17.4879 0.805167 17.6525 0.900116 17.7926C0.940917 17.8528 0.983091 17.9121 1.02156 17.9662L1.03806 17.9894C1.08227 18.0516 1.12225 18.1084 1.16019 18.166C1.42458 18.5678 1.74533 18.9673 2.04604 19.3418C2.17315 19.5001 2.29669 19.654 2.41087 19.8016C3.06962 21.0336 4.21266 21.8913 5.2331 22.5452C5.83762 22.9325 6.47029 23.1723 7.06795 23.3988C7.12957 23.4221 7.1908 23.4453 7.2516 23.4686C7.25926 23.4715 7.27009 23.4757 7.28366 23.481L7.28447 23.4813L7.28479 23.4814C7.37804 23.5177 7.59743 23.603 7.80899 23.6689C7.92503 23.705 8.06199 23.7428 8.18634 23.7606C8.233 23.785 8.27873 23.8081 8.32289 23.8291C8.39691 23.8643 8.47062 23.8958 8.53965 23.9189C8.60521 23.9409 8.68282 23.961 8.75959 23.961C8.87231 23.961 8.96755 23.883 8.99827 23.776C9.03045 23.7567 9.06577 23.7353 9.10061 23.7127C9.18603 23.6572 9.29011 23.5811 9.37007 23.474C9.4326 23.3903 9.46154 23.2905 9.47738 23.2264C9.48614 23.1909 9.49313 23.1563 9.49873 23.1279L9.50158 23.1135C9.50613 23.0903 9.50947 23.0734 9.51294 23.0583C9.52634 22.9999 9.54203 22.9375 9.55843 22.8722C9.60292 22.6952 9.65266 22.4973 9.67624 22.3031C9.69271 22.1675 9.69334 22.032 9.69389 21.9144L9.69402 21.8879C9.69473 21.7583 9.69674 21.649 9.71284 21.545C9.73474 21.4036 9.74135 21.1859 9.65372 21.0034C9.59868 20.8887 9.49619 20.8466 9.4472 20.8307C9.38952 20.812 9.32832 20.8051 9.27593 20.8024C9.16912 20.7969 9.04313 20.8067 8.92797 20.8197C8.8104 20.833 8.69234 20.8513 8.59872 20.8661L8.56323 20.8717L8.54797 20.8742C8.53525 20.8762 8.52324 20.8781 8.51191 20.8799C8.5 20.8817 8.48884 20.8835 8.47843 20.885C8.46231 20.8875 8.44932 20.8893 8.43918 20.8906L8.43547 20.8911L8.43246 20.8914C8.43047 20.8917 8.42889 20.8919 8.42768 20.892L8.42608 20.8921L8.42459 20.8923L8.38602 20.8946L8.35883 20.8962L8.35741 20.8963L8.35633 20.8964C7.99349 20.9183 7.643 20.9395 7.31381 20.8941L7.28973 20.8908C6.83389 20.828 6.41689 20.7706 6.07526 20.5649C5.75277 20.3707 5.59479 20.0763 5.38996 19.6947C5.35412 19.6279 5.31683 19.5584 5.27698 19.4863C5.0425 19.0622 4.69328 18.708 4.38156 18.3917C4.31789 18.3271 4.2558 18.2641 4.19656 18.2024C4.18748 18.193 4.17845 18.1836 4.16947 18.1743L4.14824 18.1523L4.14774 18.1518L4.14766 18.1517C4.06796 18.0691 3.99327 17.9917 3.92972 17.9153C4.1186 17.9534 4.29995 18.0011 4.45485 18.0721C4.53022 18.1066 4.60289 18.1542 4.68474 18.2136C4.70781 18.2304 4.73312 18.2493 4.75986 18.2692L4.76012 18.2694L4.76025 18.2695L4.76036 18.2696C4.82026 18.3143 4.88725 18.3642 4.95195 18.4074L4.9903 18.433L4.9904 18.433L4.99051 18.4331C5.34858 18.6719 5.69456 18.9027 6.02996 19.1592C6.0662 19.1869 6.1052 19.2182 6.14664 19.2515C6.31787 19.3889 6.53117 19.56 6.76753 19.6538C6.98435 19.7398 7.21337 19.7517 7.41697 19.7454C7.51976 19.7422 7.62175 19.7341 7.71589 19.7264L7.72998 19.7252C7.82068 19.7178 7.90315 19.7111 7.98157 19.7081L8.04309 19.7058C8.47287 19.6896 8.93558 19.6723 9.37862 19.5981C9.64107 19.5542 9.78295 19.3242 9.85721 19.1707C9.89852 19.0853 9.93144 18.9969 9.95797 18.9215C9.96861 18.8912 9.97772 18.8646 9.98594 18.8406L9.98601 18.8404C10.0002 18.799 10.0117 18.7654 10.0237 18.7343C10.0632 18.6327 10.1148 18.537 10.1752 18.425C10.1939 18.3904 10.2134 18.3542 10.2337 18.3158C10.3137 18.1642 10.4013 17.9838 10.4404 17.7805C10.4461 17.751 10.4467 17.7215 10.4428 17.6933C10.4598 17.6636 10.4712 17.6299 10.4757 17.5935C10.4929 17.4513 10.3963 17.3216 10.2598 17.3036C10.0599 17.2773 9.85646 17.2594 9.65905 17.2421L9.6578 17.242L9.6572 17.242L9.65643 17.2419L9.65629 17.2419L9.65619 17.2419L9.65601 17.2419L9.65575 17.2418L9.65546 17.2418C9.58884 17.236 9.52291 17.2302 9.45805 17.2241C9.29877 17.2093 9.14327 17.1928 8.9909 17.1702C8.95787 17.1523 8.92238 17.138 8.88478 17.1279C8.70923 17.0807 8.53404 17.0327 8.35914 16.9839C8.26845 16.9348 8.17602 16.8767 8.07658 16.8142L8.07611 16.8139L8.07571 16.8136L8.07543 16.8134L8.07507 16.8132L8.07495 16.8131C8.01738 16.777 7.95744 16.7393 7.89407 16.701C7.40179 16.4036 6.91584 15.9804 6.55849 15.5194C6.14903 14.9912 5.86191 14.5226 5.66733 13.893C5.47869 13.2827 5.34741 12.6656 5.32626 12.0379C5.31176 11.6077 5.37974 11.2243 5.45698 10.7887C5.47143 10.7072 5.48621 10.6239 5.50083 10.5381C5.5199 10.4262 5.53533 10.313 5.55005 10.205L5.55412 10.1751L5.55856 10.1427C5.57627 10.0141 5.5941 9.89231 5.61811 9.77396C5.6647 9.54433 5.76009 9.32733 5.8664 9.08551L5.86646 9.08536C5.89188 9.02755 5.91792 8.96831 5.94406 8.90715C5.95306 8.88609 5.96341 8.86313 5.9745 8.83851C6.03997 8.69317 6.13201 8.48885 6.13481 8.2613L6.13483 8.25995L6.13491 8.25593L6.13513 8.24305C6.1353 8.23269 6.13547 8.2191 6.13553 8.20352C6.13565 8.17287 6.13535 8.13238 6.1335 8.09222C6.13187 8.05692 6.12842 8.00406 6.11776 7.95717L6.11754 7.95619C6.11394 7.94028 6.10052 7.88104 6.05794 7.82761C6.04368 7.80972 6.02083 7.78597 5.98872 7.76634C5.97995 7.73446 5.97191 7.69957 5.96479 7.6668L5.96222 7.65491C5.96117 7.65001 5.9602 7.64545 5.95926 7.64103L5.95812 7.63569C5.95676 7.62926 5.95542 7.62295 5.95394 7.61608L5.95357 7.61433C5.9513 7.60376 5.94666 7.58213 5.94133 7.56463C5.93053 7.52916 5.91983 7.49446 5.90934 7.46042L5.9093 7.4603C5.8257 7.18911 5.7549 6.95946 5.7476 6.71625C5.74214 6.53405 5.74353 6.35173 5.74497 6.164L5.74498 6.16361C5.74532 6.11888 5.74567 6.07385 5.74592 6.02843C5.74622 5.97555 5.74393 5.91511 5.74178 5.85831L5.74086 5.83399C5.73839 5.76714 5.73638 5.70192 5.73739 5.63889C5.73921 5.52571 5.75113 5.45367 5.76537 5.4138C6.19085 5.34451 6.64284 5.35422 7.10463 5.36414L7.10477 5.36414L7.1049 5.36415L7.10503 5.36415L7.10516 5.36415L7.10529 5.36415L7.10545 5.36416C7.19729 5.36613 7.28953 5.36811 7.38202 5.36948C7.59738 5.37266 7.80934 5.38855 8.01657 5.42163C8.17888 5.4988 8.32141 5.59843 8.44296 5.725C8.53367 5.81945 8.62676 5.93627 8.72718 6.06543C8.87081 6.25019 9.03573 6.42052 9.20016 6.57683C9.34993 7.27167 9.94598 7.79081 10.6585 7.79081C10.7978 7.79081 10.9407 7.79139 11.0866 7.79199H11.0867H11.0869H11.0871H11.0872L11.0879 7.79199C11.8715 7.79517 12.7399 7.7987 13.601 7.71501C13.6843 7.70691 13.7662 7.70793 13.9358 7.71003L13.9362 7.71003L14.0011 7.71082C14.0199 7.71104 14.0397 7.71126 14.0605 7.71148C14.2481 7.71341 14.5334 7.71453 14.8442 7.66516C14.861 7.66576 14.8815 7.66643 14.902 7.66689C14.9679 7.66839 15.1052 7.67028 15.2636 7.64785C15.3452 7.63629 15.3116 7.7828 15.438 7.74011C15.4665 7.83227 15.6647 7.74965 15.7423 7.8153C15.9557 7.99606 16.2695 7.9624 16.4431 7.74011C16.595 7.5456 16.7494 7.37283 16.9109 7.21787C17.2403 7.00749 17.5901 6.85902 18.007 6.7304C18.5257 6.57036 19.0529 6.45971 19.5946 6.36842C19.6222 6.36378 19.6462 6.35945 19.6683 6.35548C19.7065 6.34859 19.739 6.34275 19.7739 6.33811C19.782 6.33703 19.7895 6.33613 19.7966 6.33539C19.8037 6.40197 19.8234 6.46821 19.8568 6.53038C19.8797 6.57322 19.9015 6.61788 19.922 6.66414L19.9226 6.6707C19.9254 6.83122 19.9086 7.00421 19.8907 7.18931L19.8867 7.23013C19.8795 7.30567 19.8737 7.37874 19.8681 7.44944L19.8681 7.44971C19.8619 7.52788 19.856 7.60315 19.8485 7.67567C19.8321 7.77113 19.8164 7.86836 19.8027 7.96538C19.7927 8.00742 19.781 8.04839 19.7671 8.08834C19.7275 8.20242 19.6645 8.31314 19.5853 8.44098C19.5727 8.46128 19.5596 8.48227 19.546 8.50386C19.537 8.51825 19.5278 8.53291 19.5185 8.54782C19.4855 8.44459 19.4053 8.68154 19.3737 8.57236C19.3391 8.45265 19.3845 8.70586 19.3099 8.62423C19.2354 8.5426 19.255 8.63047 19.1246 8.67611C18.9942 8.72174 19.0808 8.69595 19.1246 8.83174C19.1685 8.96753 19.0925 8.86955 19.1246 8.98021H19.1802C19.251 9.22408 19.0824 8.84939 19.1802 9.07651C19.2313 9.19541 19.2678 9.31324 19.3099 9.44936L19.31 9.4495L19.31 9.44962C19.3202 9.48254 19.3307 9.51653 19.3418 9.55186C19.3893 9.70241 19.4446 9.85564 19.4977 10.0028L19.4981 10.0041C19.5218 10.0697 19.5451 10.1342 19.567 10.1967C19.6404 10.4059 19.7039 10.6058 19.7431 10.8069C19.8736 11.4752 19.9184 12.163 19.7934 12.8115C19.7804 12.8789 19.7681 12.9455 19.7559 13.0113C19.6949 13.3398 19.6376 13.6487 19.5254 13.9262C19.4537 14.1034 19.3254 14.2597 19.1738 14.4444L19.1513 14.4717L19.1359 14.4905L19.1204 14.5095C18.7382 14.9778 18.29 15.3781 17.8145 15.7765C17.723 15.8532 17.6332 15.931 17.5445 16.0079L17.5444 16.008C17.2014 16.3054 16.8727 16.5903 16.5081 16.7524C16.1462 16.9133 15.7029 16.9303 15.2519 16.9303C15.1143 16.9303 15.0028 17.0465 15.0028 17.1897C15.0028 17.2667 15.035 17.3358 15.0862 17.3833C15.0777 17.3917 15.0695 17.4003 15.0616 17.4092C15.0504 17.382 15.0394 17.3546 15.0285 17.327C14.976 17.1946 14.8304 17.1315 14.7032 17.1862C14.576 17.2408 14.5155 17.3924 14.5679 17.5248C14.6418 17.7113 14.7202 17.8894 14.7968 18.0609C14.8082 18.0866 14.8196 18.1121 14.831 18.1375L14.8319 18.1395C14.8965 18.2841 14.959 18.4239 15.0181 18.5652C15.1566 18.8968 15.2703 19.2237 15.3285 19.5871C15.4161 20.1343 15.4312 20.6912 15.4286 21.2628C15.4278 21.4312 15.4254 21.6021 15.423 21.7744V21.7745V21.7746V21.7747V21.7748V21.775V21.7751V21.7752V21.7754C15.4174 22.1802 15.4116 22.5928 15.4261 23.0001L15.4265 23.0128L15.4268 23.0212C15.4299 23.1133 15.4342 23.244 15.4696 23.3647C15.5078 23.4951 15.5824 23.6195 15.7157 23.7088C15.7878 23.831 15.9071 23.9196 16.0472 23.9472C16.1244 23.9867 16.2125 24.0058 16.3045 23.9984C16.6041 23.9745 16.919 23.8849 17.2196 23.7609C17.3842 23.8933 17.618 23.9086 17.8006 23.7819C17.986 23.6531 18.169 23.5234 18.3494 23.3914C18.6962 23.2582 19.0308 23.1021 19.3579 22.9306C20.1384 22.5216 20.5067 21.9597 20.8862 21.3037C20.8941 21.2902 20.9012 21.2765 20.9077 21.2626C20.9254 21.2437 20.943 21.2247 20.9605 21.2056C21.1421 21.2063 21.3175 21.1032 21.406 20.9234C21.4456 20.8431 21.4857 20.7621 21.526 20.6807L21.5263 20.6799L21.5264 20.6798L21.5264 20.6797C21.7614 20.2049 22.0053 19.712 22.2215 19.1991C23.2136 17.7649 23.5909 15.7431 23.8273 14.0994C24.0054 12.861 24.0113 11.5971 23.993 10.3686C23.9712 8.90587 23.6164 7.41465 22.9642 6.09852C22.9606 6.09072 22.9569 6.08296 22.9529 6.07526L22.9465 6.06297C22.7736 5.71773 22.5801 5.38471 22.3668 5.06764C22.3553 4.99866 22.3063 4.79748 22.0966 4.68845C21.3449 3.68854 20.4448 2.90266 19.5305 2.11701C19.4714 2.06625 19.4109 2.01335 19.3489 1.95916L19.3487 1.95906C18.9316 1.59462 18.4476 1.17182 17.899 0.948884C17.3102 0.709626 16.6602 0.572673 16.0714 0.450061ZM18.4658 5.17473C18.5067 5.16055 18.5481 5.14655 18.59 5.13284C18.5605 5.11091 18.5314 5.08913 18.503 5.06775C18.4962 5.08986 18.4891 5.1111 18.4818 5.13142C18.4766 5.14605 18.4713 5.16049 18.4658 5.17473ZM19.3252 2.61325C19.3412 2.63143 19.3572 2.64962 19.3733 2.66781C19.376 2.66577 19.3787 2.66377 19.3815 2.6618L19.3252 2.61325ZM9.2116 21.5329C9.21425 21.5095 9.21736 21.486 9.22101 21.4624C9.2291 21.4102 9.23035 21.3607 9.2269 21.3197C9.17437 21.3188 9.10812 21.3226 9.03334 21.33C9.04561 21.3391 9.05782 21.3488 9.0699 21.3592C9.13059 21.4114 9.17695 21.4706 9.2116 21.5329ZM23.2488 14.5891C23.2397 14.6454 23.2306 14.7017 23.2211 14.7583C23.2198 14.7362 23.2171 14.7144 23.213 14.6929C23.2249 14.6608 23.2358 14.6282 23.243 14.6063L23.2457 14.5984L23.2488 14.5891ZM17.2602 20.9985L17.251 21.0047L17.2492 20.9924L17.2543 20.9952L17.2602 20.9985ZM15.916 22.6225C15.9194 22.6252 15.9227 22.6279 15.9261 22.6305C15.9296 22.6333 15.9332 22.636 15.9367 22.6386C15.9364 22.6575 15.9361 22.6765 15.936 22.6955C15.933 22.7045 15.9259 22.7267 15.9179 22.753C15.9171 22.7095 15.9165 22.666 15.916 22.6225ZM15.8558 19.7536L15.8555 19.7528L15.8556 19.7543L15.8558 19.7536ZM20.5486 9.53605C20.5555 9.50256 20.5625 9.46904 20.5695 9.4355C20.5405 9.48104 20.5436 9.49598 20.5447 9.50131L20.5447 9.50149L20.5449 9.50208L20.5449 9.50264C20.5454 9.50743 20.5459 9.51222 20.5465 9.51701L20.5473 9.52485C20.5478 9.52858 20.5482 9.53232 20.5486 9.53605ZM15.9421 22.674C15.9421 22.674 15.9419 22.6751 15.9412 22.6777C15.9417 22.6753 15.9421 22.674 15.9421 22.674ZM7.50015 18.3335C7.46545 18.3235 7.42874 18.3101 7.38933 18.2934C7.4758 18.3128 7.56214 18.3303 7.64813 18.3462C7.57436 18.3472 7.52836 18.3416 7.50015 18.3335ZM8.13645 22.2473C8.16728 22.2601 8.19815 22.2729 8.22888 22.2855L8.23901 22.2896L8.24159 22.2787L8.24419 22.2677L8.24842 22.2496C8.21186 22.2487 8.17452 22.248 8.13645 22.2473ZM16.0581 5.61444C16.0581 5.61444 16.0569 5.61379 16.0549 5.61239C16.0571 5.61372 16.0581 5.61444 16.0581 5.61444ZM12.741 4.10096C12.741 4.10096 12.7402 4.09824 12.7386 4.09201C12.7403 4.09771 12.741 4.10096 12.741 4.10096ZM6.98729 3.4576C6.98329 3.45736 6.98376 3.45715 6.98787 3.45764L6.98729 3.4576Z" fill="black"/>
</svg>
