<svg width="24" height="24" viewBox="0 0 24 24" fill="none" xmlns="http://www.w3.org/2000/svg">
<path d="M0 1.70976C0 0.765487 0.773652 0 1.728 0H22.272C23.2263 0 24 0.765487 24 1.70976V22.2902C24 23.2345 23.2263 24 22.272 24H1.728C0.773653 24 0 23.2345 0 22.2902V1.70976Z" fill="black"/>
<path fill-rule="evenodd" clip-rule="evenodd" d="M5.98078 3.22188C6.00864 3.22625 6.03639 3.23107 6.06396 3.23637C6.08938 3.24125 6.11453 3.24652 6.13936 3.25219C6.12804 3.25581 6.11632 3.26019 6.10439 3.2655C6.10331 3.26598 6.10223 3.26647 6.10115 3.26697C6.06168 3.25147 6.02141 3.23626 5.98078 3.22188ZM7.10028 4.17478C7.11475 4.20581 7.12836 4.23712 7.14119 4.26862C7.12896 4.23128 7.11554 4.19416 7.10097 4.15728C7.10091 4.16311 7.10068 4.16894 7.10028 4.17478ZM6.94673 3.50643C7.35483 4.05545 7.55062 4.71657 7.31989 5.38982C7.31392 5.42749 7.30668 5.46554 7.29795 5.50342C7.26206 5.65927 7.19002 5.86293 7.03031 6.00514C6.97629 6.05324 6.914 6.09291 6.85281 6.12495C6.764 6.22113 6.67108 6.31062 6.58012 6.3925C6.41637 6.5399 6.22046 6.61006 6.02419 6.6507C6.00857 6.671 5.99212 6.68754 5.97729 6.70007C5.93106 6.73913 5.88444 6.75611 5.86616 6.76233C5.8251 6.7763 5.78711 6.78088 5.77389 6.78244C5.7579 6.78432 5.73751 6.78583 5.74158 6.78548C5.69715 6.78926 5.65052 6.7928 5.60261 6.79542C5.58973 6.83137 5.55474 6.85714 5.5136 6.85714C4.3965 6.85714 3.62351 5.97505 3.50353 4.95064C3.47461 4.70365 3.49594 4.49305 3.56414 4.29335C3.63193 4.09488 3.74445 3.91184 3.89106 3.71836C4.05524 3.50169 4.23359 3.3329 4.44295 3.21395C4.65274 3.09476 4.88897 3.02828 5.165 3.00995C5.42235 2.99286 5.77047 2.99191 6.10031 3.05528C6.42748 3.11815 6.75445 3.24776 6.94673 3.50643ZM6.35503 6.25509C6.39082 6.26052 6.42383 6.26005 6.45195 6.2571C6.37124 6.32963 6.28054 6.37952 6.1821 6.41558C6.242 6.36537 6.2998 6.31175 6.35503 6.25509ZM3.93839 5.65025C3.95445 5.7012 3.97265 5.75484 3.99341 5.8094C3.83311 5.55035 3.72837 5.24929 3.69093 4.92963C3.66478 4.70633 3.68453 4.52316 3.74304 4.35184C3.74935 4.33336 3.75613 4.31497 3.76338 4.29663C3.71364 4.49656 3.69794 4.70035 3.7072 4.88938C3.72125 5.17638 3.80586 5.43039 3.93839 5.65025ZM5.23844 4.30148C5.24355 4.30292 5.24885 4.30449 5.25437 4.30619C5.24363 4.31974 5.23315 4.33412 5.22296 4.34906L5.2236 4.34676C5.22784 4.33153 5.23263 4.31724 5.23844 4.30148ZM5.00815 5.82595C5.06043 5.85503 5.11503 5.882 5.17169 5.90676C5.17939 5.87308 5.19157 5.84322 5.20612 5.81696C5.14084 5.82706 5.07427 5.83001 5.00815 5.82595ZM6.486 3.39486C6.4861 3.39488 6.48722 3.39605 6.48907 3.39829C6.48683 3.39597 6.4859 3.39484 6.486 3.39486Z" fill="white"/>
<path fill-rule="evenodd" clip-rule="evenodd" d="M4.44745 8.18567C4.37712 8.18571 4.30675 8.18572 4.23634 8.18572C4.18513 8.18572 4.14362 8.22777 4.14362 8.27964C4.14362 8.28434 4.14396 8.28896 4.14462 8.29348L4.14242 8.29525C4.05764 8.36395 4.03042 8.45243 4.02082 8.49476C4.01546 8.51838 4.01268 8.54069 4.01129 8.55996C3.99933 8.57577 3.99222 8.59555 3.99222 8.61701V10.3925C3.99222 11.1955 3.9771 11.9977 3.96196 12.801L3.96195 12.8016L3.96195 12.8016C3.95917 12.9491 3.95639 13.0966 3.9537 13.2441C3.93134 13.5189 3.92579 13.7962 3.94016 14.0765C3.93503 14.4551 3.93167 14.8339 3.93167 15.2129V16.6595C3.93167 16.7408 3.93058 16.8233 3.92949 16.9067C3.92563 17.2008 3.92163 17.5054 3.9646 17.8028C3.96996 17.8399 3.97552 17.8765 3.98147 17.9128L3.98072 17.9298C3.9764 18.0278 3.97225 18.1403 3.97482 18.2543C3.97961 18.4671 4.00734 18.7522 4.1605 18.9729C4.24277 19.0914 4.3621 19.1483 4.44749 19.1776C4.47038 19.1855 4.49359 19.1923 4.51682 19.1982C4.52397 19.2039 4.53149 19.2093 4.53943 19.2143C4.60898 19.2581 4.69356 19.2616 4.77801 19.2616H5.44753C5.51648 19.2616 5.58859 19.2626 5.66278 19.2636H5.66279H5.6628H5.66281H5.66281H5.66282H5.66283H5.66284H5.66284H5.66285H5.66286H5.66287H5.66288H5.66289H5.66289H5.6629H5.66291H5.66292H5.66293H5.66294H5.66294H5.66295C5.86031 19.2663 6.07243 19.2693 6.27919 19.2543C6.36853 19.2479 6.4582 19.238 6.5469 19.2232C6.5962 19.2607 6.65703 19.2836 6.72334 19.2856C6.8607 19.2896 6.97971 19.2022 7.02346 19.0778C7.05101 19.0644 7.07816 19.05 7.10485 19.0347C7.38097 18.8759 7.42412 18.5902 7.41755 18.3371C7.40987 18.0417 7.37114 17.7473 7.33137 17.458L7.32388 17.4036C7.28636 17.1315 7.24948 16.864 7.23578 16.5967C7.21548 16.201 7.20155 15.8052 7.19207 15.4091C7.20196 15.1191 7.21599 14.8295 7.23714 14.5386C7.24286 14.4598 7.2193 14.3858 7.1758 14.3273C7.17159 13.7643 7.17286 13.201 7.17412 12.6371V12.6371V12.6371V12.6371V12.6371V12.6371V12.6371V12.6371V12.6371V12.6371V12.6371V12.6371V12.637V12.637V12.637V12.637C7.17455 12.4491 7.17497 12.2612 7.17519 12.0732C7.19319 11.9412 7.21272 11.8094 7.23394 11.6777C7.24813 11.5897 7.22459 11.5042 7.17534 11.4383V11.1211C7.19397 11.0595 7.19284 10.9961 7.17534 10.9382V9.68357C7.17766 9.67212 7.17999 9.66066 7.18234 9.6492C7.1933 9.59579 7.19012 9.54273 7.17538 9.49401C7.17582 9.41704 7.18027 9.33334 7.18504 9.24359V9.24359V9.24358V9.24358V9.24358V9.24357V9.24357V9.24356V9.24356V9.24355V9.24355V9.24355V9.24354V9.24353V9.24353V9.24353V9.24352V9.24352V9.24351V9.24351V9.2435V9.2435L7.18633 9.21914C7.19176 9.11637 7.1971 9.00701 7.19603 8.89824C7.19391 8.68294 7.16694 8.45516 7.05367 8.27089C6.98947 8.16644 6.87635 8.14582 6.79209 8.14318C6.74786 8.14179 6.70331 8.14508 6.66447 8.14856C6.65425 8.14948 6.64459 8.15038 6.63541 8.15125C6.60765 8.15385 6.58425 8.15605 6.56294 8.15681C5.91327 8.1799 5.26469 8.18459 4.61372 8.18551C4.60403 8.18494 4.59425 8.18445 4.58446 8.18404C4.54407 8.18237 4.49674 8.18185 4.44745 8.18567ZM4.11711 15.7684C4.12431 15.7222 4.13189 15.6758 4.13986 15.6292C4.13237 15.5734 4.1248 15.5176 4.11711 15.4619V15.7684ZM5.9933 17.5816C5.99574 17.3911 5.99832 17.2007 6.00108 17.0102C5.98413 17.0014 5.96809 16.991 5.95315 16.9793C5.96551 17.1803 5.9789 17.381 5.9933 17.5816ZM5.37372 18.6153C5.37449 18.6203 5.3753 18.6253 5.37616 18.6302C5.40323 18.6305 5.43021 18.6305 5.45715 18.6305C5.45533 18.6099 5.45352 18.5892 5.45172 18.5686C5.42826 18.5879 5.402 18.6037 5.37372 18.6153ZM4.17767 8.85765V9.28853C4.18827 9.20291 4.2006 9.11743 4.21489 9.03228C4.21528 9.02997 4.21579 9.02668 4.21644 9.02254L4.21644 9.02253L4.21644 9.02252L4.21644 9.0225L4.21644 9.0225L4.21644 9.02249L4.21644 9.02249L4.21644 9.02249C4.21952 9.00273 4.22557 8.96383 4.23519 8.92158L4.17767 8.85765Z" fill="white"/>
<path fill-rule="evenodd" clip-rule="evenodd" d="M13.8849 8.46806C13.6005 8.49068 13.3291 8.63593 13.1585 8.88658C13.0851 8.99445 13.0284 9.09744 12.9827 9.20072C12.9531 9.2353 12.9234 9.27007 12.8942 9.30467C12.8888 9.25986 12.8824 9.21195 12.8719 9.16521C12.8607 9.11557 12.8524 9.06022 12.8437 8.99934L12.8408 8.97935L12.8408 8.97934L12.8408 8.97934C12.8331 8.92527 12.8249 8.86754 12.8142 8.81077C12.7904 8.68479 12.7517 8.54734 12.6632 8.44064C12.6506 8.4254 12.6385 8.41052 12.6269 8.39633C12.6058 8.37041 12.5865 8.34682 12.5696 8.3276C12.5421 8.29644 12.5126 8.26719 12.4751 8.24475C12.399 8.19916 12.3097 8.19443 12.1869 8.19443C12.1 8.19443 12.0121 8.19393 11.9235 8.19331C11.8292 8.17169 11.7514 8.16582 11.7061 8.16336C11.6036 8.15781 11.5119 8.16406 11.4518 8.16963C11.3887 8.17546 11.331 8.18352 11.2977 8.18817C11.2844 8.19004 11.2753 8.19128 11.2695 8.19208C10.6794 8.1987 10.077 8.23881 9.51744 8.41538C9.48027 8.42711 9.45535 8.45883 9.45107 8.49451C9.43867 8.48439 9.42351 8.47718 9.40649 8.47416C9.35399 8.46486 9.30372 8.49902 9.29423 8.55047C9.28842 8.5819 9.28293 8.61338 9.27773 8.64491C9.04495 8.8103 8.88961 9.07535 8.87882 9.37872C8.86562 9.75022 8.85928 10.1312 8.87211 10.5207C8.87256 10.5343 8.87255 10.5423 8.87248 10.5463C8.87223 10.5475 8.87188 10.5491 8.8714 10.5512C8.84146 10.6833 8.84124 10.815 8.86639 10.9397C8.83724 11.0066 8.81556 11.0779 8.80251 11.1527C8.69887 11.7472 8.73842 12.2945 8.77161 12.7539L8.77161 12.7539L8.77162 12.7539L8.77162 12.7539L8.77162 12.7539L8.77162 12.7539C8.77855 12.8499 8.78521 12.942 8.79022 13.0299C8.7998 13.1978 8.78385 13.3907 8.76018 13.6768L8.75964 13.6833C8.73842 13.9398 8.70979 14.2858 8.74126 14.6265C8.76663 14.9012 8.79337 15.1694 8.81968 15.4333L8.81969 15.4333L8.81969 15.4333C8.89365 16.1751 8.96426 16.8833 8.99163 17.6072C8.99328 17.651 8.9943 17.7 8.9954 17.7535C9.0012 18.034 9.00955 18.4375 9.12632 18.85L9.12799 18.8927C9.12921 18.9236 9.12988 18.9558 9.13057 18.989C9.13326 19.1183 9.13624 19.2618 9.17325 19.3977C9.19624 19.4822 9.25644 19.5406 9.32189 19.5803C9.38684 19.6196 9.46443 19.6454 9.53897 19.6634C9.64739 19.6897 9.76838 19.7031 9.85312 19.7125H9.85312C9.88232 19.7158 9.90722 19.7185 9.92581 19.7212C9.93276 19.7222 9.93971 19.7231 9.94667 19.7241C10.1196 19.8836 10.3526 19.9814 10.6089 19.9814H10.6105H10.6121H10.6137H10.6154H10.617H10.6186H10.6202H10.6219H10.6235H10.6251H10.6268H10.6284H10.63H10.6316H10.6333H10.6349H10.6365H10.6381H10.6398H10.6414H10.643H10.6446H10.6463H10.6479H10.6495H10.6511H10.6528H10.6544H10.656H10.6577H10.6593H10.6609H10.6625H10.6642H10.6658H10.6674H10.669H10.6707H10.6723H10.6739H10.6755H10.6772H10.6788H10.6804H10.682H10.6837H10.6853H10.6869H10.6886H10.6902H10.6918H10.6934H10.6951H10.6967H10.6983H10.6999H10.7016H10.7032H10.7048H10.7064H10.7081H10.7097H10.7113H10.7129H10.7146H10.7162H10.7178H10.7195H10.7211H10.7227H10.7243H10.726H10.7276H10.7292H10.7308H10.7325H10.7341H10.7357H10.7373H10.739H10.7406H10.7422H10.7438H10.7455H10.7471H10.7487H10.7504H10.752H10.7536H10.7552H10.7569H10.7585H10.7601H10.7617H10.7634H10.765H10.7666H10.7682H10.7699H10.7715H10.7731H10.7747H10.7764H10.778H10.7796H10.7813H10.7829H10.7845H10.7861H10.7878H10.7894H10.791H10.7926H10.7943H10.7959H10.7975H10.7991H10.8008H10.8024H10.804H10.8056H10.8073H10.8089H10.8105H10.8122H10.8138H10.8154H10.817H10.8187H10.8203H10.8219H10.8235H10.8252H10.8268H10.8284H10.83H10.8317H10.8333H10.8349H10.8366H10.8382H10.8398H10.8414H10.8431H10.8447H10.8463H10.8479H10.8496H10.8512H10.8528H10.8544H10.8561H10.8577H10.8593H10.8609H10.8626H10.8642H10.8658H10.8675H10.8691H10.8707H10.8723H10.874H10.8756H10.8772H10.8788H10.8805H10.8821H10.8837H10.8853H10.887H10.8886H10.8902H10.8918H10.8935H10.8951H10.8967H10.8984H10.9H10.9016H10.9032H10.9049H10.9065H10.9081H10.9097H10.9114H10.913H10.9146H10.9162H10.9179H10.9195H10.9211H10.9227H10.9244H10.926H10.9276H10.9293H10.9309H10.9325H10.9341H10.9358H10.9374H10.939H10.9406H10.9423H10.9439H10.9455H10.9471H10.9488H10.9504H10.952H10.9536H10.9553H10.9569H10.9585H10.9602H10.9618H10.9634H10.965H10.9667H10.9683H10.9699H10.9715H10.9732H10.9748H10.9764H10.978H10.9797H10.9813H10.9829H10.9845H10.9862H10.9878H10.9894H10.9911H10.9927H10.9943H10.9959H10.9976H10.9992H11.0008H11.0024H11.0041H11.0057H11.0073H11.0089H11.0106H11.0122H11.0138H11.0155H11.0171H11.0187H11.0203H11.022H11.0236H11.0252H11.0268H11.0285H11.0301H11.0317H11.0333H11.035H11.0366H11.0382H11.0398H11.0415H11.0431H11.0447H11.0464H11.048H11.0496H11.0512H11.0529H11.0545H11.0561H11.0577H11.0594H11.061H11.0626H11.0642H11.0659H11.0675H11.0691H11.0707H11.0724H11.074H11.0756H11.0773H11.0789H11.0805H11.0821H11.0838H11.0854H11.087H11.0886H11.0903H11.0919H11.0935H11.0951H11.0968H11.0984H11.1H11.1016H11.1033H11.1049H11.1065H11.1082H11.1098H11.1114H11.113H11.1147H11.1163H11.1179H11.1195H11.1212H11.1228H11.1244H11.126H11.1277H11.1293H11.1309H11.1325H11.1342H11.1358H11.1374H11.1391H11.1407H11.1423H11.1439H11.1456H11.1472H11.1488H11.1504H11.1521H11.1537H11.1553H11.1569H11.1586H11.1602H11.1618H11.1634H11.1651H11.1667H11.1683H11.17H11.1716H11.1732H11.1748H11.1765H11.1781H11.1797H11.1813H11.183H11.1846H11.1862H11.1878H11.1895H11.1911H11.1927H11.1943H11.196H11.1976H11.1992H11.2009H11.2025H11.2041H11.2057H11.2074H11.209H11.2106H11.2122H11.2139H11.2155H11.2171H11.2187H11.2204H11.222H11.2236H11.2253H11.2269H11.2285H11.2301H11.2318H11.2334H11.235H11.2366H11.2383H11.2399H11.2415H11.2431H11.2448H11.2464H11.248H11.2496H11.2513H11.2529H11.2545H11.2562H11.2578H11.2594H11.261H11.2627H11.2643H11.2659H11.2675H11.2692H11.2708H11.2724H11.274H11.2757H11.2773H11.2789H11.2805H11.2822H11.2838H11.2854H11.2871H11.2887H11.2903H11.2919H11.2936H11.2952H11.2968H11.2984H11.3001H11.3017H11.3033H11.3049H11.3066H11.3082H11.3098H11.3114H11.3131H11.3147H11.3163H11.318H11.3196H11.3212H11.3228H11.3245H11.3261H11.3277H11.3293H11.331H11.3326H11.3342H11.3358H11.3375H11.3391H11.3407H11.3423H11.344H11.3456H11.3472H11.3489H11.3505H11.3521H11.3537H11.3554H11.357H11.3586H11.3602H11.3619H11.3635H11.3651H11.3667H11.3684H11.37H11.3716H11.3732H11.3749H11.3765H11.3781H11.3798H11.3814H11.383H11.3846H11.3863H11.3879H11.3895H11.3911H11.3928H11.3944H11.396H11.3976H11.3993H11.4009H11.4025H11.4041H11.4058H11.4074H11.409H11.4107H11.4123H11.4139H11.4155H11.4172H11.4188H11.4204H11.422H11.4237H11.4253H11.4269H11.4281C11.81 20.2338 12.3171 20.1841 12.6407 19.8755C12.6499 19.8728 12.6589 19.87 12.6677 19.8669C12.7386 19.8425 12.8171 19.7995 12.8536 19.7192C12.9318 19.5468 12.9453 19.3421 12.9397 19.1492C12.9369 19.0517 12.9291 18.9543 12.9211 18.8625C12.9196 18.8451 12.918 18.8279 12.9165 18.811L12.9165 18.811C12.91 18.7378 12.9039 18.6693 12.9003 18.6056C12.8789 18.2205 12.8619 17.8404 12.8619 17.4567C12.8619 16.961 12.8302 16.4658 12.7988 15.9737L12.7986 15.9713C12.767 15.4775 12.7357 14.9867 12.7357 14.4959C12.7357 14.3648 12.7374 14.2316 12.7429 14.0981C12.7493 14.0732 12.7576 14.0412 12.7666 14.0066C12.7839 13.9398 12.8039 13.8631 12.8173 13.8082L12.8198 13.7981C12.8369 13.7288 12.8816 13.5478 12.8828 13.3838C12.883 13.3548 12.8832 13.2836 12.8663 13.1917C12.9013 13.0619 12.9453 12.9359 13.0007 12.8155C13.1801 12.6303 13.3466 12.4596 13.5443 12.2769C13.8344 12.0089 13.9625 11.9123 14.0718 11.8762C14.2446 11.8192 14.4152 11.8195 14.7936 11.82L14.7938 11.82C14.8337 11.8201 14.8759 11.8202 14.9206 11.8202C14.9554 11.8202 14.9896 11.8198 15.0173 11.8195L15.029 11.8194C15.0374 11.8193 15.0452 11.8192 15.0525 11.8192C15.0855 11.8496 15.1334 11.8914 15.1928 11.9335C15.2577 11.9797 15.3643 12.0466 15.507 12.0932C15.6469 12.1389 15.79 12.1515 15.9274 12.1353C16.3174 12.4273 16.62 12.83 16.7127 13.2715C16.727 13.3397 16.74 13.4079 16.7517 13.4762C16.7625 13.7964 16.7458 14.1307 16.7202 14.4984C16.7147 14.5785 16.7086 14.6612 16.7023 14.7458L16.7023 14.7458V14.7458V14.7458C16.6741 15.1285 16.6428 15.5518 16.6428 15.9708V15.9756V15.9805V15.9853V15.9901V15.9949V15.9998V16.0046V16.0094V16.0142V16.0191V16.0239V16.0287V16.0335V16.0384V16.0432V16.048V16.0528V16.0577V16.0625V16.0673V16.0721V16.077V16.0818V16.0866V16.0914V16.0962V16.1011V16.1059V16.1107V16.1155V16.1204V16.1252V16.13V16.1348V16.1397V16.1445V16.1493V16.1541V16.1589V16.1638V16.1686V16.1734V16.1782V16.1831V16.1879V16.1927V16.1975V16.2023V16.2072V16.212V16.2168V16.2216V16.2265V16.2313V16.2361V16.2409V16.2457V16.2506V16.2554V16.2602V16.265V16.2698V16.2747V16.2795V16.2843V16.2891V16.2939V16.2988V16.3036V16.3084V16.3132V16.3181V16.3229V16.3277V16.3325V16.3373V16.3422V16.347V16.3518V16.3566V16.3614V16.3662V16.3711V16.3759V16.3807V16.3855V16.3903V16.3952V16.4V16.4048V16.4096V16.4144V16.4193V16.4241V16.4289V16.4337V16.4385V16.4433V16.4482V16.453V16.4578V16.4626V16.4674V16.4723V16.4771V16.4819V16.4867V16.4915V16.4963V16.5012V16.506V16.5108V16.5156V16.5204V16.5252V16.5301V16.5349V16.5397V16.5445V16.5493V16.5541V16.559V16.5638V16.5686V16.5734V16.5782V16.583V16.5879V16.5927V16.5975V16.6023V16.6071V16.6119V16.6167V16.6216V16.6264V16.6312V16.636V16.6408V16.6456V16.6504V16.6553V16.6601V16.6649V16.6697V16.6745V16.6793V16.6841V16.689V16.6938V16.6986V16.7034V16.7082V16.713V16.7178V16.7227V16.7275V16.7323V16.7371V16.7419V16.7467V16.7515V16.7563V16.7612V16.766V16.7708V16.7756V16.7804V16.7852V16.79V16.7948V16.7997V16.8045V16.8093V16.8141V16.8189V16.8237V16.8285V16.8333V16.8381V16.843V16.8478V16.8526V16.8574V16.8622V16.867V16.8718V16.8766V16.8814V16.8863V16.8911V16.8959V16.9007V16.9055V16.9103V16.9151V16.9199V16.9247V16.9295V16.9344V16.9392V16.944V16.9488V16.9536V16.9584V16.9632V16.968V16.9728V16.9776V16.9824V16.9872V16.9921V16.9969V17.0017V17.0065V17.0113V17.0161V17.0209V17.0257V17.0305V17.0353V17.0401V17.0449V17.0497V17.0546V17.0594V17.0642V17.069V17.0738V17.0786V17.0834V17.0882V17.093V17.0978V17.1026V17.1074V17.1122V17.117V17.1218V17.1266V17.1315V17.1363V17.1411V17.1459V17.1507V17.1555V17.1603V17.1651V17.1699V17.1747V17.1795V17.1843V17.1891V17.1939V17.1987V17.2035V17.2083V17.2131V17.2179V17.2227V17.2275V17.2323V17.2371V17.2419V17.2468V17.2516V17.2564V17.2612V17.266V17.2708V17.2756V17.2804V17.2852V17.29V17.2948V17.2996V17.3044V17.3092V17.314V17.3188V17.3236V17.3284V17.3332V17.338V17.3428V17.3476V17.3524V17.3572V17.362V17.3668V17.3716V17.3764V17.3812V17.386V17.3908V17.3956V17.4004V17.4052V17.41V17.4148V17.4196V17.4244V17.4292V17.434V17.4388V17.4436V17.4484V17.4532V17.458V17.4628V17.4676V17.4724V17.4772V17.482V17.4868V17.4916V17.4964V17.5012V17.506V17.5108V17.5156V17.5203V17.5251V17.5299V17.5347V17.5395V17.5443V17.5491V17.5539V17.5587V17.5635V17.5683V17.5731V17.5779V17.5827V17.5875V17.5923V17.5971V17.6019V17.6067V17.6115V17.6163V17.6211V17.6259V17.6306V17.6354V17.6402V17.645V17.6498V17.6546V17.6594V17.6642V17.669V17.6738V17.6786V17.6834V17.6882V17.693V17.6978V17.7026V17.7073V17.7121V17.7169V17.7217V17.7265V17.7313V17.7361V17.7409V17.7457V17.7505V17.7553V17.7601V17.7648V17.7696V17.7744V17.7792V17.784V17.7888V17.7936V17.7984V17.8032V17.808V17.8128V17.8175V17.8223V17.8271V17.8319V17.8367V17.8415V17.8463V17.8511V17.8559V17.8606V17.8654V17.8702V17.875V17.8798V17.8846V17.8894V17.8942V17.899V17.9037V17.9085V17.9133V17.9181V17.9229V17.9277V17.9325V17.9372V17.942V17.9468V17.9516V17.9564V17.9612V17.966V17.9708V17.9755V17.9803V17.9851V17.9899V17.9947V17.9995V18.0043V18.009V18.0138V18.0186V18.0234V18.0282V18.033V18.0377V18.0425V18.0473V18.0521V18.0569V18.0617V18.0664V18.0712V18.076V18.0808V18.0856V18.0904V18.0951V18.0999V18.1047V18.1095V18.1143V18.1191V18.1238V18.1286V18.1334V18.1382V18.143V18.1477V18.1525V18.1573V18.1621V18.1669V18.1717V18.1764V18.1812V18.186V18.1908V18.1956V18.2003V18.2051V18.2099V18.2147V18.2195V18.2242V18.229V18.2338V18.2386V18.2434V18.2481V18.2529V18.2577V18.2625V18.2672V18.272V18.2768V18.2816V18.2864V18.2911V18.2959V18.3007V18.3055V18.3102V18.315V18.3198V18.3246V18.3293V18.3341V18.3389V18.3437V18.3485V18.3532V18.358V18.3628V18.3676V18.3723V18.3771V18.3819V18.3867V18.3914V18.3962V18.401V18.4058V18.4105V18.4153V18.4201V18.4248V18.4296C16.6428 18.4847 16.6476 18.5386 16.6569 18.5911C16.6643 18.7152 16.6758 18.8392 16.6923 18.9631C16.7115 19.1074 16.7412 19.2151 16.8299 19.2883C16.8721 19.3232 16.9218 19.3453 16.9743 19.3631C17.0213 19.379 17.0772 19.3936 17.1396 19.4098L17.1593 19.415C17.3938 19.4762 17.6404 19.5078 17.8876 19.5242C18.1026 19.6825 18.3835 19.7525 18.6674 19.694C18.7554 19.6758 18.824 19.6774 18.9691 19.6808H18.9691C19.0477 19.6827 19.1486 19.685 19.2871 19.6851L19.2913 19.6852L19.293 19.6852H19.2931C19.2999 19.6855 19.3219 19.6863 19.3423 19.6865L19.3443 19.6866C19.3837 19.6871 19.5201 19.6889 19.6779 19.6436C19.7377 19.6264 19.7977 19.6035 19.8563 19.5744C19.8671 19.5744 19.878 19.5745 19.8889 19.5745C19.9303 19.5745 19.97 19.5777 20.0116 19.5811L20.0262 19.5823C20.0705 19.5858 20.1204 19.5895 20.1674 19.5852C20.2159 19.5809 20.2688 19.5676 20.3158 19.5318C20.363 19.4959 20.3942 19.4448 20.414 19.3827C20.5148 19.0668 20.5238 18.6768 20.4863 18.3242C20.5049 18.0991 20.508 17.8861 20.5087 17.6991C20.5115 16.9511 20.501 16.1751 20.4184 15.3861V14.7034C20.4184 14.6827 20.4116 14.6635 20.4001 14.6479C20.4018 14.641 20.4027 14.6338 20.4027 14.6264C20.4027 14.5044 20.3947 14.3839 20.3869 14.2666L20.3868 14.2665L20.3867 14.264C20.3788 14.1449 20.3711 14.029 20.3711 13.9119C20.3711 13.258 20.3048 12.6242 20.2152 11.9893C20.1897 11.5715 20.1385 11.139 20.0358 10.7084C19.952 10.3574 19.8094 9.94807 19.5805 9.56947C19.3534 9.19412 19.0053 8.79069 18.4873 8.55386C18.4354 8.53011 18.3829 8.50788 18.33 8.48706C18.1721 8.38588 17.9992 8.29706 17.8125 8.25831C17.1498 8.12081 16.465 8.13729 15.7991 8.15332C15.5865 8.15844 15.3759 8.16351 15.1684 8.16351C14.7413 8.16351 14.2868 8.27028 13.8849 8.46806ZM16.9182 19.0914C16.9293 19.1183 16.9415 19.1329 16.9544 19.1436C16.9673 19.1542 16.9855 19.1646 17.0144 19.1758C16.9805 19.1498 16.9483 19.1216 16.9182 19.0914ZM18.5751 17.7991L18.5756 17.799C18.576 17.7643 18.5763 17.7287 18.5764 17.6922C18.5771 17.5093 18.5769 17.3288 18.5751 17.1502V17.1507V17.1555V17.1603V17.1651V17.1699V17.1747V17.1795V17.1843V17.1891V17.1939V17.1987V17.2035V17.2083V17.2131V17.2179V17.2227V17.2275V17.2323V17.2371V17.2419V17.2468V17.2516V17.2564V17.2612V17.266V17.2708V17.2756V17.2804V17.2852V17.29V17.2948V17.2996V17.3044V17.3092V17.314V17.3188V17.3236V17.3284V17.3332V17.338V17.3428V17.3476V17.3524V17.3572V17.362V17.3668V17.3716V17.3764V17.3812V17.386V17.3908V17.3956V17.4004V17.4052V17.41V17.4148V17.4196V17.4244V17.4292V17.434V17.4388V17.4436V17.4484V17.4532V17.458V17.4628V17.4676V17.4724V17.4772V17.482V17.4868V17.4916V17.4964V17.5012V17.506V17.5108V17.5156V17.5203V17.5251V17.5299V17.5347V17.5395V17.5443V17.5491V17.5539V17.5587V17.5635V17.5683V17.5731V17.5779V17.5827V17.5875V17.5923V17.5971V17.6019V17.6067V17.6115V17.6163V17.6211V17.6259V17.6306V17.6354V17.6402V17.645V17.6498V17.6546V17.6594V17.6642V17.669V17.6738V17.6786V17.6834V17.6882V17.693V17.6978V17.7026V17.7073V17.7121V17.7169V17.7217V17.7265V17.7313V17.7361V17.7409V17.7457V17.7505V17.7553V17.7601V17.7648V17.7696V17.7744V17.7792V17.784V17.7888V17.7936V17.7984V17.7991ZM20.1734 13.6174C20.1693 13.6277 20.165 13.6378 20.1606 13.6479L20.1672 13.6883L20.1764 13.7439C20.1757 13.7016 20.1747 13.6595 20.1734 13.6174ZM20.2595 19.2177C20.2469 19.2369 20.2332 19.2562 20.2186 19.2755C20.1845 19.3202 20.1479 19.3609 20.1092 19.3977C20.1242 19.3981 20.1376 19.3978 20.1498 19.3967C20.176 19.3944 20.189 19.3886 20.1971 19.3824C20.205 19.3764 20.218 19.3626 20.2296 19.3262C20.2408 19.2911 20.2507 19.2549 20.2595 19.2177ZM17.5452 10.2202C17.5354 10.2773 17.5309 10.3355 17.532 10.3939C17.4089 10.2904 17.2901 10.2063 17.1896 10.1366C17.3198 10.1565 17.4393 10.1842 17.5452 10.2202ZM9.55262 19.4712C9.47643 19.4222 9.40705 19.3626 9.34707 19.2935C9.35069 19.3121 9.35494 19.3305 9.35995 19.3489C9.36601 19.3712 9.38354 19.395 9.42357 19.4193C9.45718 19.4396 9.5012 19.4568 9.55262 19.4712ZM12.3594 8.39902C12.3861 8.41998 12.4109 8.44162 12.434 8.46369C12.4304 8.45946 12.4269 8.45537 12.4234 8.45139C12.4007 8.42566 12.3866 8.41362 12.3744 8.40631C12.37 8.40368 12.3652 8.40124 12.3594 8.39902ZM12.8107 9.61782C12.8224 9.621 12.8334 9.62183 12.8435 9.62123C12.8415 9.6276 12.8393 9.63461 12.8368 9.64231L12.8321 9.65698L12.8321 9.657L12.8258 9.67669L12.8216 9.68228L12.8197 9.68482C12.8168 9.66631 12.8139 9.64756 12.811 9.6285L12.8107 9.61782Z" fill="white"/>
</svg>
